<?xml version="1.0" standalone="no"?>
<!DOCTYPE svg PUBLIC "-//W3C//DTD SVG 20010904//EN"
 "http://www.w3.org/TR/2001/REC-SVG-20010904/DTD/svg10.dtd">
<svg version="1.0" xmlns="http://www.w3.org/2000/svg"
 width="750.000000pt" height="750.000000pt" viewBox="0 0 750.000000 750.000000"
 preserveAspectRatio="xMidYMid meet">
<metadata>
Created by potrace 1.14, written by Peter Selinger 2001-2017
</metadata>
<g transform="translate(0.000000,750.000000) scale(0.100000,-0.100000)"
fill="#000000" stroke="none">
<path d="M4808 7103 c7 -3 16 -2 19 1 4 3 -2 6 -13 5 -11 0 -14 -3 -6 -6z"/>
<path d="M4750 7090 c0 -5 5 -10 10 -10 6 0 10 5 10 10 0 6 -4 10 -10 10 -5 0
-10 -4 -10 -10z"/>
<path d="M4834 7089 c-2 -4 -12 -5 -20 -2 -9 3 -19 1 -23 -5 -3 -5 -30 -14
-58 -20 -41 -7 -55 -6 -64 4 -17 21 -28 17 -22 -7 5 -19 4 -20 -15 -10 -29 15
-52 14 -52 -4 0 -8 -5 -15 -11 -15 -5 0 -7 -4 -4 -10 12 -19 -44 -10 -57 9
-11 16 -24 19 -61 17 -26 -1 -47 0 -47 3 0 3 -26 6 -57 5 -56 0 -60 -2 -104
-47 -39 -41 -49 -47 -75 -41 -22 4 -36 1 -48 -11 -9 -9 -23 -14 -31 -11 -8 3
-27 -1 -42 -9 -15 -8 -40 -15 -54 -15 -17 0 -32 -9 -43 -25 -12 -18 -13 -25
-4 -25 7 0 0 -7 -17 -16 -16 -9 -47 -16 -68 -15 -25 1 -39 -3 -43 -13 -5 -12
-10 -13 -26 -5 -20 11 -78 3 -78 -10 0 -4 -18 -14 -40 -21 -32 -10 -42 -11
-55 0 -12 10 -15 10 -15 -3 0 -9 -15 -20 -34 -27 -19 -6 -37 -19 -39 -28 -4
-15 -5 -15 -6 1 -1 16 -7 18 -43 12 -48 -8 -77 -21 -79 -35 -1 -6 -2 -14 -3
-19 -2 -19 -17 -25 -26 -11 -7 11 -10 8 -10 -12 0 -28 -13 -37 -25 -18 -11 19
-22 10 -18 -14 5 -26 -13 -44 -29 -28 -11 11 -38 -7 -38 -27 0 -18 -18 -21
-34 -5 -20 19 -64 12 -102 -18 -21 -17 -27 -19 -35 -7 -7 12 -11 11 -26 -3
-16 -17 -16 -18 4 -18 12 0 25 -5 28 -11 5 -7 -4 -9 -26 -6 -28 3 -39 -2 -61
-27 -21 -24 -27 -27 -28 -13 0 14 -4 16 -20 7 -12 -7 -17 -16 -13 -27 5 -13 2
-15 -18 -10 -13 4 -27 7 -31 7 -5 0 -8 10 -9 23 l-1 22 -6 -23 c-9 -29 -25
-30 -32 -2 -6 27 -25 26 -24 -1 0 -13 -4 -18 -13 -15 -8 3 -13 -2 -13 -13 0
-10 -6 -24 -14 -30 -11 -9 -15 -7 -20 11 -6 23 -7 23 -34 -8 -15 -18 -34 -34
-42 -37 -9 -3 -10 -6 -2 -6 21 -2 13 -27 -14 -41 -26 -15 -29 -14 -154 37
l-35 14 43 -6 c25 -3 42 -1 42 5 0 5 -17 10 -37 10 -20 0 -44 6 -52 14 -9 8
-40 17 -68 21 -47 6 -53 5 -54 -12 0 -17 -1 -17 -8 1 -4 11 -18 21 -32 22 -13
2 -56 7 -96 11 -46 6 -79 15 -92 27 -11 10 -27 16 -35 13 -8 -3 -22 3 -32 14
-18 20 -64 25 -92 10 -28 -15 -112 -1 -112 18 -1 11 -7 8 -24 -12 -21 -26 -27
-28 -57 -20 -19 5 -57 9 -86 8 -35 -1 -54 2 -57 11 -3 8 -11 11 -19 8 -7 -2
-34 0 -58 5 -36 8 -46 8 -55 -4 -14 -19 -24 -19 -24 0 0 9 -9 15 -25 15 -20 0
-25 -5 -25 -24 0 -34 -28 -42 -40 -12 -12 33 -31 42 -42 22 -11 -20 -37 -21
-44 -1 -13 34 -27 14 -21 -30 4 -26 3 -45 -3 -45 -5 0 -7 7 -4 15 4 10 0 15
-10 15 -9 0 -19 -7 -22 -15 -8 -21 -32 -19 -37 3 -4 14 -5 13 -6 -4 -1 -25
-62 -85 -68 -66 -3 8 -30 12 -84 12 -64 0 -79 -3 -79 -15 0 -12 -15 -15 -79
-15 -54 0 -81 -4 -84 -12 -4 -10 -7 -10 -18 0 -11 10 -10 12 4 12 9 0 17 7 17
15 0 11 -12 15 -49 15 -42 0 -53 4 -71 28 -18 22 -21 36 -17 77 2 28 2 56 0
63 -8 22 -21 13 -28 -20 -4 -18 -12 -48 -18 -65 -17 -51 -57 -40 -57 16 0 14
-8 17 -42 15 -24 -1 -60 -2 -80 -3 -35 -1 -38 -3 -38 -31 0 -19 -5 -30 -14
-30 -8 0 -17 -6 -20 -12 -5 -10 -7 -10 -12 0 -3 6 -12 12 -19 12 -7 0 -16 -6
-18 -12 -3 -7 -3 4 0 25 l6 37 -42 0 c-30 0 -41 -4 -41 -15 0 -11 -11 -15 -42
-15 -37 0 -49 6 -87 42 -27 26 -46 38 -49 30 -2 -6 -9 -12 -16 -12 -7 0 -20
-8 -29 -18 -15 -17 -17 -75 -17 -634 l0 -615 61 -7 c34 -3 131 -6 215 -6 85 0
254 -4 376 -10 123 -5 294 -12 381 -16 86 -3 157 -10 157 -15 0 -4 -158 -8
-352 -9 -193 0 -354 -3 -357 -5 -2 -3 34 -5 82 -5 47 0 88 -4 91 -9 11 -17
-47 -31 -128 -31 -67 0 -83 3 -83 15 0 8 6 15 14 15 7 0 13 5 13 10 0 6 -17
10 -37 10 -21 0 -127 3 -235 7 l-198 6 0 -45 0 -45 552 -7 c304 -4 705 -9 890
-12 330 -5 338 -4 355 16 10 11 25 20 35 20 10 0 18 7 18 15 0 8 -8 15 -18 15
-10 0 -22 4 -28 10 -5 5 -99 13 -209 17 l-200 8 285 5 c157 3 293 9 303 14 14
7 16 5 11 -10 -4 -11 -17 -29 -30 -42 -13 -13 -24 -31 -24 -42 0 -15 6 -18 30
-15 16 2 34 6 40 10 6 3 22 -3 36 -14 32 -25 54 -17 54 20 0 16 7 47 16 69 18
45 14 55 -22 55 -13 0 -23 5 -21 10 3 14 68 7 157 -16 41 -11 83 -22 93 -24
80 -17 267 -111 357 -178 112 -84 212 -196 263 -294 26 -50 47 -95 47 -100 0
-4 -20 22 -45 59 -58 87 -92 112 -42 30 26 -43 93 -178 102 -207 5 -16 8 -17
15 -5 6 10 7 2 3 -22 -5 -34 -3 -38 16 -38 12 0 21 -6 21 -15 0 -9 7 -27 16
-41 22 -33 44 -133 60 -276 3 -27 11 -48 16 -48 7 0 8 19 4 53 -5 37 -4 49 4
41 6 -6 11 -36 12 -67 1 -31 5 -57 10 -57 4 0 3 -12 -3 -27 -8 -21 -7 -25 1
-17 7 7 13 24 13 38 2 33 21 28 25 -7 5 -39 22 -23 22 19 0 24 4 34 13 31 6
-2 11 -15 9 -28 -3 -30 28 -99 46 -99 6 0 12 7 12 15 0 8 5 15 10 15 6 0 10
-12 10 -27 0 -28 20 -71 20 -45 0 6 5 12 10 12 6 0 10 -19 10 -41 0 -41 0 -41
31 -35 25 5 36 1 61 -24 19 -20 40 -30 59 -30 16 0 29 -5 29 -10 0 -6 12 -15
27 -21 24 -9 30 -7 48 15 12 14 28 26 36 26 24 0 90 37 105 59 8 11 28 29 44
41 26 19 35 20 65 10 19 -6 35 -16 35 -21 0 -5 5 -9 11 -9 7 0 9 10 5 25 -5
20 -3 25 13 25 29 0 33 -15 11 -40 -18 -21 -25 -54 -22 -100 0 -8 -3 -32 -8
-54 -9 -42 10 -115 35 -128 26 -15 59 -288 36 -303 -16 -9 -14 -76 2 -70 9 4
13 -19 14 -95 2 -90 0 -102 -17 -113 -24 -14 -27 -62 -5 -71 8 -3 15 -15 15
-26 0 -11 5 -20 10 -20 18 0 10 -20 -19 -46 -37 -32 -48 -81 -24 -100 10 -7
14 -14 10 -14 -5 0 -1 -8 8 -17 13 -12 15 -25 10 -52 -3 -20 -6 -43 -6 -51 1
-8 1 -31 1 -50 0 -19 6 -37 12 -41 7 -5 13 -35 14 -73 1 -36 5 -69 8 -75 4 -5
-2 -15 -12 -20 -14 -8 -18 -18 -14 -37 3 -18 1 -25 -6 -20 -13 8 -41 -43 -35
-61 3 -8 -15 -21 -43 -34 -34 -14 -44 -23 -35 -28 16 -10 5 -51 -13 -51 -13 0
-18 -19 -34 -129 -8 -54 -32 -73 -60 -48 -10 9 -30 17 -45 17 -38 0 -97 31
-97 50 0 24 -26 73 -50 95 -11 10 -20 22 -20 27 0 5 -6 16 -12 23 -30 33 -38
45 -38 53 0 5 -7 15 -15 22 -19 16 -46 76 -74 168 -13 40 -29 79 -37 86 -8 8
-14 21 -15 28 0 7 -9 27 -20 43 -10 17 -24 41 -29 55 -6 14 -23 35 -37 47 -14
12 -36 37 -50 55 -13 18 -29 34 -36 34 -7 1 -20 2 -29 3 -11 1 -18 9 -18 20 0
11 -9 23 -20 26 -11 3 -20 11 -20 16 0 15 -37 52 -43 42 -2 -4 -5 -55 -6 -112
-1 -58 -7 -112 -12 -120 -8 -12 -9 -7 -5 19 4 23 3 30 -3 20 -5 -8 -12 -217
-16 -463 -8 -432 -7 -448 11 -462 17 -12 19 -26 17 -172 -2 -87 -7 -261 -13
-388 -5 -126 -10 -369 -10 -540 0 -170 -2 -329 -6 -351 -4 -28 -2 -44 6 -49 9
-6 11 0 8 24 -6 43 11 56 57 41 24 -8 35 -18 35 -31 0 -12 7 -19 20 -19 11 0
20 -5 20 -11 0 -6 8 -8 18 -4 11 3 29 -3 45 -15 14 -11 36 -20 50 -20 13 0 30
-7 37 -15 7 -8 18 -15 24 -15 6 0 23 -12 38 -27 41 -44 54 -52 98 -62 51 -11
75 -33 100 -88 l19 -43 1551 2 c1053 2 1553 6 1558 13 4 6 19 11 35 12 77 5
87 7 87 14 0 4 -5 11 -11 15 -6 4 1 14 19 24 22 13 41 17 71 13 25 -4 41 -2
41 5 0 6 -6 12 -12 15 -7 2 -9 8 -5 13 4 5 12 3 16 -4 6 -9 15 -10 42 -1 19 7
39 16 45 20 6 5 14 5 18 1 4 -4 14 2 22 12 12 17 14 18 20 2 6 -15 8 -16 31
-1 14 9 32 14 40 11 9 -4 26 0 38 8 27 18 135 47 147 40 15 -9 79 19 74 33 -4
9 5 13 29 13 l35 0 0 965 c0 637 -3 965 -10 965 -5 0 -10 -4 -10 -10 0 -5 -13
-16 -29 -25 -19 -9 -32 -25 -36 -46 -4 -16 -13 -33 -21 -36 -19 -7 -18 -23 1
-23 8 0 15 -4 15 -10 0 -5 -9 -10 -20 -10 -12 0 -28 -6 -36 -13 -44 -36 -94
-86 -94 -94 0 -16 -51 -63 -61 -57 -5 3 -6 -2 -3 -10 6 -15 -4 -20 -32 -17 -6
1 -19 -15 -28 -34 -9 -19 -22 -36 -29 -36 -7 -1 -19 -3 -27 -4 -8 -1 -21 -3
-29 -4 -8 0 -11 -7 -7 -17 5 -13 1 -15 -25 -12 -27 4 -29 3 -16 -7 26 -19 20
-27 -14 -20 -20 5 -29 3 -26 -3 6 -8 -60 -43 -88 -46 -5 0 -20 -11 -33 -24
-12 -12 -27 -20 -32 -17 -6 4 -10 -1 -10 -9 0 -9 -6 -13 -14 -10 -8 3 -23 -8
-36 -25 -12 -17 -26 -29 -31 -26 -5 4 -6 -1 -3 -9 4 -10 1 -16 -9 -16 -18 0
-27 -21 -27 -66 0 -19 -4 -34 -8 -34 -5 0 -7 13 -4 29 2 16 -1 32 -9 36 -8 6
-11 4 -7 -7 4 -8 2 -36 -4 -61 -9 -43 -12 -47 -39 -47 -16 0 -46 -7 -67 -16
-20 -9 -55 -20 -77 -23 -23 -4 -39 -12 -38 -19 2 -7 -4 -12 -12 -12 -8 0 -15
-9 -15 -21 0 -16 -4 -19 -20 -14 -26 8 -60 -3 -60 -20 0 -15 -22 -25 -56 -25
-18 0 -24 -5 -24 -22 0 -13 -4 -18 -8 -12 -4 6 -24 10 -44 10 -29 0 -35 -3
-26 -13 15 -18 -29 -17 -62 2 -35 20 -64 19 -56 -1 4 -11 1 -14 -12 -12 -9 2
-17 10 -18 18 -2 29 -4 30 -24 13 -19 -16 -19 -18 -3 -25 10 -4 -4 -4 -32 -2
-27 3 -59 9 -70 14 -46 20 -93 30 -108 24 -12 -4 -17 -1 -17 10 0 13 -4 15
-17 8 -20 -12 -63 5 -63 24 0 14 -89 24 -97 11 -3 -4 -11 0 -19 10 -13 17 -15
17 -25 1 -12 -21 -69 -24 -87 -6 -9 9 -12 9 -12 -2 -1 -11 -3 -11 -11 3 -5 9
-19 17 -29 17 -11 0 -20 5 -20 10 0 6 -6 10 -13 10 -8 0 -24 9 -37 20 -13 12
-30 18 -37 16 -23 -9 -14 26 14 52 29 26 79 44 126 45 20 0 27 5 27 18 0 11 7
19 16 19 9 0 37 15 63 33 25 18 61 40 79 48 17 7 32 17 32 21 0 5 11 8 25 8
14 0 28 6 31 14 3 7 23 22 45 31 27 12 36 21 27 26 -9 6 -4 11 13 18 15 5 29
17 32 25 4 9 16 16 27 16 26 0 64 35 55 50 -4 6 5 20 19 31 21 16 24 24 16 39
-13 24 -13 77 0 85 6 3 10 18 10 32 0 19 4 24 16 19 10 -4 13 -2 8 6 -4 6 1
17 12 25 15 11 16 16 6 22 -16 10 -1 84 22 110 9 10 16 25 16 35 0 9 5 26 11
37 7 15 7 24 -1 34 -17 21 7 94 42 126 9 8 20 39 24 70 4 30 14 64 22 77 12
18 12 22 1 22 -8 1 -1 11 15 24 16 14 26 29 21 35 -4 7 -2 18 5 25 16 20 31
76 19 76 -12 0 -12 57 1 65 6 4 7 11 4 17 -4 5 -1 28 5 49 6 21 16 57 22 78 7
22 18 42 25 45 8 3 14 16 14 29 0 13 5 28 12 35 8 8 8 15 -1 26 -9 11 -9 20
-2 34 6 11 8 22 4 25 -3 4 2 9 11 13 17 7 22 34 6 34 -5 0 -10 12 -10 26 0 19
4 25 15 20 11 -4 15 1 15 18 0 37 28 83 55 90 14 4 25 13 25 20 0 8 7 17 16
20 10 4 14 12 10 22 -4 9 -1 24 6 32 11 13 10 15 -4 9 -10 -3 -18 -2 -18 3 0
6 5 10 10 10 6 0 10 7 10 16 0 9 10 29 23 44 17 19 24 42 25 75 1 26 9 56 17
68 8 12 12 31 9 44 -4 13 -2 29 3 36 6 6 11 30 11 52 1 22 7 65 13 95 7 30 13
67 14 83 1 15 4 30 5 35 1 4 1 15 0 26 -1 10 3 22 9 26 7 3 16 49 22 101 6 52
15 98 20 104 5 5 9 21 9 36 0 33 19 90 37 107 7 7 13 21 13 30 0 10 9 23 20
30 12 7 25 24 30 38 6 14 14 22 20 19 6 -3 7 1 4 9 -3 9 -2 16 3 16 4 0 9 17
10 38 1 34 33 115 33 84 0 -7 5 -10 11 -7 6 4 8 14 5 22 -4 9 -1 21 5 29 7 9
7 19 0 32 -6 11 -8 22 -5 25 3 3 8 24 10 48 3 24 10 51 15 60 5 10 6 34 1 56
-9 43 15 126 34 119 13 -5 12 36 -1 67 -4 9 -3 17 2 17 5 0 7 18 5 40 -2 22
-9 40 -14 40 -7 0 -6 5 1 13 6 8 13 75 16 158 7 209 15 270 37 307 15 25 19
43 14 72 -10 62 -99 207 -178 289 l-70 74 36 -7 c32 -6 35 -5 29 11 -6 16 -5
16 10 4 14 -11 23 -11 40 -3 12 6 40 13 62 17 22 3 56 8 77 11 30 5 38 2 47
-15 6 -11 27 -28 46 -37 19 -9 35 -22 35 -28 0 -6 14 -17 31 -23 34 -13 33 -7
15 -142 -3 -25 0 -38 12 -48 9 -7 12 -13 5 -13 -21 0 -1 -41 29 -56 17 -9 27
-18 24 -21 -3 -3 1 -18 9 -34 21 -39 19 -56 -9 -84 -34 -34 -41 -63 -21 -85
15 -17 15 -19 0 -32 -45 -36 -55 -50 -55 -72 0 -13 7 -29 15 -36 8 -7 15 -17
15 -22 0 -9 4 -14 45 -61 14 -15 25 -31 25 -35 0 -4 14 -22 32 -41 28 -30 31
-40 34 -105 2 -39 6 -134 9 -211 3 -77 6 -144 7 -150 0 -16 -12 -214 -15 -228
-1 -6 -4 -14 -7 -17 -16 -15 -28 -106 -24 -179 3 -64 1 -88 -10 -100 -17 -19
-31 -101 -18 -101 5 0 5 -18 -1 -44 -8 -38 -7 -46 10 -63 10 -10 25 -17 31
-15 7 2 12 -7 12 -22 0 -14 5 -26 10 -26 6 0 10 5 10 10 0 6 4 10 10 10 5 0 9
-9 7 -21 -2 -18 4 -21 41 -25 33 -3 42 -1 42 12 0 8 5 12 10 9 16 -10 50 5 50
21 0 8 8 18 18 21 23 9 33 25 26 45 -3 10 -2 23 3 30 4 7 9 22 10 33 2 10 9
22 16 27 9 5 9 14 0 38 -6 16 -7 30 -2 30 5 0 8 512 7 1287 -3 1217 -4 1288
-20 1291 -11 2 -18 -3 -18 -12 0 -9 -4 -16 -9 -16 -5 0 -12 -8 -14 -17 -3 -13
-5 -12 -6 5 -1 28 -21 19 -21 -9 0 -20 -15 -26 -25 -10 -7 12 -42 6 -61 -10
-8 -6 -21 -9 -30 -5 -20 8 -57 -12 -48 -26 5 -7 -2 -9 -20 -6 -17 3 -26 1 -26
-7 0 -18 -24 -25 -86 -25 -42 0 -54 -3 -54 -15 0 -9 -6 -15 -12 -14 -7 1 -20
0 -28 -3 -8 -3 -33 -10 -55 -15 -22 -5 -39 -14 -37 -21 1 -7 -5 -12 -14 -12
-10 0 -14 6 -10 15 3 9 0 15 -9 15 -8 0 -15 -9 -15 -20 0 -21 -40 -38 -60 -25
-6 4 -17 1 -25 -5 -12 -10 -18 -10 -29 -1 -11 10 -16 8 -21 -8 -5 -16 -15 -21
-41 -21 -19 0 -34 4 -34 9 0 14 -39 20 -43 7 -2 -6 -8 -8 -12 -4 -4 4 -2 14 5
23 12 14 15 14 36 0 27 -17 44 -19 44 -5 0 6 -12 15 -27 21 -15 6 -31 15 -34
21 -4 6 -15 2 -28 -11 -28 -28 -35 -27 -27 5 6 22 4 25 -14 19 -15 -5 -19 -3
-14 9 3 9 11 16 16 16 6 0 -1 9 -15 20 -14 11 -32 18 -40 15 -7 -3 -20 1 -27
10 -8 10 -9 15 -1 15 6 0 11 7 11 15 0 8 -4 15 -10 15 -5 0 -10 -5 -10 -12 0
-6 -3 -8 -7 -4 -5 4 -8 13 -8 19 0 7 -11 13 -25 15 -14 2 -31 11 -37 20 -12
14 -13 14 -13 -2 0 -10 -5 -14 -11 -11 -6 4 -8 14 -5 22 4 11 2 13 -9 9 -11
-4 -15 1 -15 20 0 22 -2 23 -14 11 -16 -16 -76 -11 -76 7 0 6 -5 4 -10 -4 -8
-13 -10 -12 -10 3 0 10 -8 17 -20 17 -22 0 -27 15 -7 23 6 3 -2 6 -19 6 -17 1
-39 10 -49 21 -11 12 -29 19 -49 18 -52 -2 -96 12 -97 30 0 11 -2 12 -6 5 -2
-7 -15 -13 -27 -13 -13 0 -26 -3 -29 -6 -4 -4 -23 -8 -43 -10 -21 -2 -40 -8
-44 -14 -3 -6 -16 3 -29 21 -15 20 -29 29 -41 26 -25 -7 -50 11 -50 35 0 17
-3 19 -12 10 -18 -18 -28 -14 -28 11 0 20 -5 23 -42 25 -30 2 -39 -1 -29 -7
23 -15 -67 -24 -127 -13 -29 5 -52 5 -52 1 0 -5 -8 -9 -18 -9 -10 0 -23 -5
-29 -11 -8 -8 -13 -8 -17 0 -5 8 -13 8 -26 1 -13 -7 -21 -7 -25 0 -3 5 -11 10
-16 10 -6 0 -8 -4 -4 -9 7 -13 -16 -26 -24 -14 -3 5 -21 13 -40 16 -18 4 -41
16 -51 27 -9 10 -25 19 -36 19 -10 1 -28 1 -39 1 -24 0 -56 1 -72 2 -7 1 -10
5 -7 10 8 12 -26 22 -37 11 -14 -14 -69 -3 -69 13 0 16 -1 16 -53 19 -21 1
-40 -2 -43 -6z m-1394 -388 c0 -5 -7 -11 -15 -15 -9 -3 -15 0 -15 9 0 8 7 15
15 15 8 0 15 -4 15 -9z m3673 -58 c-7 -2 -19 -2 -25 0 -7 3 -2 5 12 5 14 0 19
-2 13 -5z m-5075 -144 c-2 -6 -8 -10 -13 -10 -5 0 -11 4 -13 10 -2 6 4 11 13
11 9 0 15 -5 13 -11z m-1498 -9 c0 -5 -9 -10 -20 -10 -11 0 -20 5 -20 10 0 6
9 10 20 10 11 0 20 -4 20 -10z m1460 0 c0 -5 -7 -7 -15 -4 -8 4 -15 8 -15 10
0 2 7 4 15 4 8 0 15 -4 15 -10z m-1440 -80 l0 -50 -40 0 c-22 0 -40 5 -40 10
0 6 11 10 25 10 23 0 25 4 25 40 0 29 4 40 15 40 11 0 15 -12 15 -50z m2275
20 c3 -5 1 -10 -4 -10 -6 0 -11 5 -11 10 0 6 2 10 4 10 3 0 8 -4 11 -10z
m-415 -39 c0 -5 12 -12 28 -14 21 -4 19 -4 -7 -3 -19 0 -36 7 -39 14 -2 6 1
12 7 12 6 0 11 -4 11 -9z m-1803 -28 c-16 -16 -18 -16 -34 0 -16 16 -15 17 17
17 32 0 33 -1 17 -17z m430 -5 c-3 -8 -6 -5 -6 6 -1 11 2 17 5 13 3 -3 4 -12
1 -19z m63 15 c0 -5 -5 -15 -10 -23 -9 -13 -11 -13 -20 0 -15 22 -12 30 10 30
11 0 20 -3 20 -7z m3528 -37 c26 -13 60 -38 76 -55 31 -32 47 -33 39 -3 -5 21
22 49 32 32 3 -5 1 -10 -4 -10 -6 0 -11 -18 -11 -40 0 -22 4 -40 9 -40 5 0 8
15 7 33 -1 28 2 32 23 29 13 -1 29 3 36 8 10 8 15 8 20 -1 4 -6 2 -15 -5 -19
-9 -6 -10 -9 0 -15 7 -4 16 -2 20 5 6 9 13 5 25 -14 19 -29 35 -34 35 -11 0 8
5 15 10 15 6 0 10 -4 10 -8 0 -5 11 -14 25 -20 14 -6 25 -18 25 -26 0 -8 12
-21 28 -29 15 -7 26 -19 24 -26 -2 -9 4 -12 16 -9 16 4 18 1 14 -15 -4 -17 -2
-19 21 -13 23 5 27 3 27 -14 0 -11 -4 -20 -9 -20 -5 0 -12 -14 -16 -31 -4 -17
-13 -33 -21 -36 -8 -3 -14 -11 -14 -18 0 -7 -11 -20 -25 -29 -14 -9 -25 -12
-25 -6 0 5 -11 10 -25 10 -14 0 -25 5 -25 10 0 6 -5 10 -11 10 -8 0 -8 -4 1
-15 13 -16 4 -39 -12 -29 -6 4 -14 0 -19 -7 -7 -12 -9 -12 -9 0 0 9 -8 11 -25
7 -27 -7 -71 26 -60 44 4 6 1 10 -4 10 -6 0 -11 -11 -11 -25 0 -14 -5 -25 -11
-25 -6 0 -9 9 -6 20 4 17 2 20 -14 15 -10 -4 -19 -2 -19 3 0 5 -16 13 -35 16
-20 4 -33 11 -30 17 4 5 0 9 -8 9 -8 0 -20 7 -27 15 -11 13 -8 15 16 16 23 1
24 3 7 6 -14 3 -26 16 -33 39 -7 20 -18 34 -28 35 -11 0 -12 2 -4 6 15 6 16
39 1 49 -6 3 -9 14 -6 24 3 12 -2 20 -14 23 -11 3 -19 12 -19 21 0 9 -7 16
-16 16 -9 0 -14 6 -11 13 2 6 11 11 20 9 27 -5 8 27 -19 34 -24 6 -30 15 -17
27 11 12 33 8 81 -17z m-3628 -46 c0 -5 -2 -10 -4 -10 -3 0 -8 5 -11 10 -3 6
-1 10 4 10 6 0 11 -4 11 -10z m5695 -170 c3 -5 -1 -10 -9 -10 -9 0 -16 5 -16
10 0 6 4 10 9 10 6 0 13 -4 16 -10z m-1575 -152 c0 -18 -2 -20 -9 -8 -6 8 -7
18 -5 22 9 14 14 9 14 -14z m505 -175 c2 -7 12 -13 20 -13 9 0 13 -4 10 -10
-4 -6 5 -10 19 -10 16 0 26 -6 26 -14 0 -8 9 -17 19 -21 13 -4 17 -12 14 -25
-3 -12 3 -23 16 -32 12 -7 21 -19 21 -26 0 -9 6 -12 15 -8 24 9 40 -42 20 -64
-8 -9 -13 -24 -9 -33 3 -8 0 -25 -6 -37 -9 -16 -18 -20 -35 -16 -17 4 -27 1
-34 -11 -8 -15 -12 -16 -22 -5 -10 9 -10 15 -2 23 14 14 -13 63 -29 53 -5 -3
-15 -1 -23 6 -8 6 -27 9 -47 5 -21 -4 -44 -1 -63 9 -36 19 -62 20 -68 4 -4
-10 -8 -10 -14 -1 -13 18 -78 21 -78 3 0 -10 -15 -17 -49 -22 -63 -9 -76 -14
-76 -32 0 -7 -7 -16 -14 -19 -9 -4 -13 -1 -10 6 6 18 -63 54 -77 40 -8 -8 -8
-17 1 -32 15 -29 -15 -42 -35 -15 -14 18 -14 18 -15 -3 0 -14 -6 -23 -15 -23
-9 0 -15 -9 -15 -24 0 -15 -7 -26 -20 -29 -12 -3 -18 -1 -14 5 4 6 -2 6 -14
-1 -35 -19 -59 -12 -86 22 -22 27 -24 34 -11 43 8 6 12 14 8 17 -3 4 -1 7 5 7
6 0 13 9 17 20 4 11 20 23 38 28 21 5 34 16 38 33 6 19 7 20 8 5 1 -24 17 -10
23 18 3 20 48 32 48 13 0 -5 8 1 19 14 10 13 16 30 13 38 -4 10 -1 13 12 8 11
-4 19 -1 23 9 5 13 7 13 14 2 7 -10 9 -8 9 6 0 13 5 17 19 13 11 -3 22 1 25 9
3 7 12 11 21 8 8 -4 15 -1 15 6 0 8 9 10 24 6 16 -4 26 -1 30 10 3 8 10 13 14
10 5 -3 22 2 38 11 40 22 76 28 160 28 50 0 75 -4 79 -12z m-275 -323 c0 -5
-2 -10 -4 -10 -3 0 -8 5 -11 10 -3 6 -1 10 4 10 6 0 11 -4 11 -10z m0 -40 c0
-5 -5 -10 -11 -10 -5 0 -7 5 -4 10 3 6 8 10 11 10 2 0 4 -4 4 -10z m-462 -18
c45 -47 45 -47 -2 -93 -24 -24 -53 -52 -64 -61 -13 -11 -19 -24 -15 -37 4 -17
1 -21 -21 -21 -14 0 -26 -5 -26 -11 0 -6 -9 -9 -20 -6 -11 3 -18 1 -15 -4 7
-11 -43 -24 -53 -14 -4 4 -1 10 6 12 6 3 9 9 6 14 -3 6 0 16 6 24 6 8 9 19 6
24 -4 5 -2 12 4 16 5 3 10 -3 10 -15 0 -12 4 -18 10 -15 5 3 7 20 3 37 -5 28
-4 30 16 23 18 -5 21 -3 21 24 0 17 5 31 10 31 6 0 10 10 10 23 0 14 3 18 8
10 5 -8 16 -1 35 22 32 40 40 42 65 17z m531 2 c2 -2 -7 -4 -22 -4 -14 0 -29
5 -32 10 -6 10 42 4 54 -6z m-102 0 c-3 -3 -12 -4 -19 -1 -8 3 -5 6 6 6 11 1
17 -2 13 -5z m263 -14 c0 -5 -2 -10 -4 -10 -3 0 -8 5 -11 10 -3 6 -1 10 4 10
6 0 11 -4 11 -10z m-236 -12 c-3 -5 -26 -8 -52 -8 -26 0 -42 4 -35 8 16 10 93
10 87 0z m-3264 -168 c0 -11 -6 -30 -12 -43 -7 -12 -14 -24 -15 -26 -1 -1 -7
0 -13 4 -8 5 -8 10 0 20 14 17 -4 55 -25 55 -24 0 -17 18 8 22 31 6 57 -9 57
-32z m2770 20 c0 -5 -7 -10 -15 -10 -8 0 -15 5 -15 10 0 6 7 10 15 10 8 0 15
-4 15 -10z m-3595 -20 c15 -6 9 -9 -25 -9 -34 0 -40 3 -25 9 11 5 22 9 25 9 3
0 14 -4 25 -9z m83 -7 c-10 -2 -28 -2 -40 0 -13 2 -5 4 17 4 22 1 32 -1 23 -4z
m3332 -23 c0 -5 -4 -10 -10 -10 -5 0 -10 5 -10 10 0 6 5 10 10 10 6 0 10 -4
10 -10z m-4274 -15 c-8 -9 -31 -15 -53 -14 l-38 1 38 8 c20 4 40 10 44 13 3 4
10 7 15 7 5 0 3 -7 -6 -15z m-213 -2 c-7 -2 -19 -2 -25 0 -7 3 -2 5 12 5 14 0
19 -2 13 -5z m90 0 c-7 -2 -21 -2 -30 0 -10 3 -4 5 12 5 17 0 24 -2 18 -5z
m4383 -40 c-10 -10 -19 5 -10 18 6 11 8 11 12 0 2 -7 1 -15 -2 -18z m-1656
-504 c0 -6 -4 -7 -10 -4 -5 3 -10 11 -10 16 0 6 5 7 10 4 6 -3 10 -11 10 -16z
m750 -739 c0 -5 -2 -10 -4 -10 -3 0 -8 5 -11 10 -3 6 -1 10 4 10 6 0 11 -4 11
-10z m2637 -532 c-3 -8 -6 -5 -6 6 -1 11 2 17 5 13 3 -3 4 -12 1 -19z m-2360
-200 c-3 -8 -6 -5 -6 6 -1 11 2 17 5 13 3 -3 4 -12 1 -19z m-980 -615 c-3 -10
-5 -2 -5 17 0 19 2 27 5 18 2 -10 2 -26 0 -35z m2150 -355 c-3 -8 -6 -5 -6 6
-1 11 2 17 5 13 3 -3 4 -12 1 -19z m-1323 -236 c2 -4 2 -26 -1 -49 -4 -33 -9
-40 -23 -36 -13 4 -18 15 -18 41 0 21 2 40 5 45 6 9 31 9 37 -1z m2501 -702
c3 -5 -1 -10 -9 -10 -9 0 -16 5 -16 10 0 6 4 10 9 10 6 0 13 -4 16 -10z
m-2671 -891 c34 -27 33 -39 -3 -39 -28 0 -41 14 -41 46 0 19 13 18 44 -7z
m446 -284 c0 -8 -4 -15 -10 -15 -5 0 -7 7 -4 15 4 8 8 15 10 15 2 0 4 -7 4
-15z m-127 -62 c-7 -2 -19 -2 -25 0 -7 3 -2 5 12 5 14 0 19 -2 13 -5z"/>
<path d="M4955 6210 c3 -5 8 -10 11 -10 2 0 4 5 4 10 0 6 -5 10 -11 10 -5 0
-7 -4 -4 -10z"/>
<path d="M5090 6060 c0 -5 5 -10 10 -10 6 0 10 5 10 10 0 6 -4 10 -10 10 -5 0
-10 -4 -10 -10z"/>
<path d="M5730 5646 c0 -9 5 -16 10 -16 6 0 10 4 10 9 0 6 -4 13 -10 16 -5 3
-10 -1 -10 -9z"/>
<path d="M4685 7080 c-8 -13 15 -13 35 0 12 8 11 10 -7 10 -12 0 -25 -4 -28
-10z"/>
<path d="M5060 7060 c0 -12 17 -12 45 0 17 7 15 9 -12 9 -18 1 -33 -3 -33 -9z"/>
<path d="M4530 7040 c0 -5 5 -10 11 -10 5 0 7 5 4 10 -3 6 -8 10 -11 10 -2 0
-4 -4 -4 -10z"/>
<path d="M3225 6620 c-3 -5 1 -10 9 -10 8 0 18 5 21 10 3 6 -1 10 -9 10 -8 0
-18 -4 -21 -10z"/>
<path d="M6713 6613 c-15 -5 -17 -23 -4 -23 5 0 11 7 15 15 3 8 4 15 3 14 -1
0 -8 -3 -14 -6z"/>
<path d="M3090 6574 c0 -8 5 -12 10 -9 6 3 10 10 10 16 0 5 -4 9 -10 9 -5 0
-10 -7 -10 -16z"/>
<path d="M2900 6510 c0 -5 5 -10 10 -10 6 0 10 5 10 10 0 6 -4 10 -10 10 -5 0
-10 -4 -10 -10z"/>
<path d="M2150 5232 c1 -19 20 -27 70 -27 30 0 65 -4 78 -8 13 -5 22 -4 22 1
0 5 -19 14 -42 20 -56 14 -128 22 -128 14z"/>
<path d="M2348 5183 c7 -3 16 -2 19 1 4 3 -2 6 -13 5 -11 0 -14 -3 -6 -6z"/>
<path d="M2185 5151 c3 -5 21 -15 40 -21 19 -6 35 -15 35 -20 0 -4 6 -10 14
-13 8 -3 13 1 12 11 0 9 -18 25 -40 34 -42 20 -71 23 -61 9z"/>
<path d="M24 5048 l-19 -21 38 6 c20 3 37 2 37 -4 0 -5 10 -9 23 -8 12 0 16 3
9 6 -10 4 -10 8 0 21 11 14 9 15 -19 9 -19 -4 -33 -2 -33 3 0 16 -16 11 -36
-12z"/>
<path d="M150 5051 c0 -5 -3 -16 -6 -25 -4 -11 0 -16 14 -16 15 0 20 6 19 20
-1 19 -27 38 -27 21z"/>
<path d="M195 5050 c3 -5 13 -10 21 -10 8 0 12 5 9 10 -3 6 -13 10 -21 10 -8
0 -12 -4 -9 -10z"/>
<path d="M2085 5053 c-16 -3 -34 -9 -39 -14 -6 -5 -18 -9 -28 -9 -11 0 -15 -5
-12 -14 4 -10 -6 -15 -41 -18 -25 -2 -52 0 -60 5 -7 4 -16 3 -19 -2 -7 -11 34
-19 161 -31 117 -11 242 -34 269 -48 10 -6 39 -20 64 -32 67 -32 199 -123 200
-137 0 -24 30 -13 41 15 9 22 7 29 -6 37 -10 6 -52 35 -94 66 -42 31 -86 59
-98 63 -13 4 -23 11 -23 16 0 4 -8 10 -17 13 -10 3 -72 26 -138 51 -66 25
-122 45 -125 44 -3 0 -18 -3 -35 -5z m512 -269 c-3 -3 -12 -4 -19 -1 -8 3 -5
6 6 6 11 1 17 -2 13 -5z"/>
<path d="M2490 5030 c-9 -6 -10 -10 -3 -10 6 0 15 5 18 10 8 12 4 12 -15 0z"/>
<path d="M220 5020 c0 -5 5 -10 10 -10 6 0 10 5 10 10 0 6 -4 10 -10 10 -5 0
-10 -4 -10 -10z"/>
<path d="M268 5023 c7 -3 16 -2 19 1 4 3 -2 6 -13 5 -11 0 -14 -3 -6 -6z"/>
<path d="M330 5020 c-10 -7 12 -9 70 -9 72 1 79 3 45 10 -54 11 -97 11 -115
-1z"/>
<path d="M524 5019 c-6 -10 119 -18 288 -19 93 0 159 4 163 10 4 6 -11 10 -37
11 -245 4 -411 3 -414 -2z"/>
<path d="M1056 5022 c-3 -5 -19 -7 -37 -4 -22 3 -30 1 -25 -7 4 -6 17 -10 29
-10 12 1 78 -2 147 -5 245 -12 390 -14 418 -6 15 5 25 9 22 10 -11 4 -142 10
-325 14 -104 2 -197 7 -206 10 -10 4 -19 3 -23 -2z"/>
<path d="M2515 5020 c-7 -11 72 -53 88 -47 6 2 -10 15 -36 29 -26 15 -49 22
-52 18z"/>
<path d="M2695 4992 c17 -17 32 -29 34 -26 6 6 -20 34 -43 46 -15 8 -12 2 9
-20z"/>
<path d="M1823 4993 c9 -2 23 -2 30 0 6 3 -1 5 -18 5 -16 0 -22 -2 -12 -5z"/>
<path d="M2620 4956 c0 -2 7 -7 16 -10 8 -3 12 -2 9 4 -6 10 -25 14 -25 6z"/>
<path d="M2580 4943 c0 -5 16 -24 35 -43 19 -19 35 -30 35 -24 0 5 -16 24 -35
43 -19 18 -35 29 -35 24z"/>
<path d="M2673 4916 c9 -7 17 -18 17 -25 0 -6 5 -11 10 -11 6 0 10 4 10 8 0
12 -34 42 -46 42 -5 0 -1 -7 9 -14z"/>
<path d="M2792 4883 c2 -14 -5 -28 -17 -37 -27 -20 -12 -32 16 -12 28 19 32
41 12 58 -13 10 -14 9 -11 -9z"/>
<path d="M780 4760 c-21 -7 -21 -8 -5 -9 11 0 27 4 35 9 18 11 5 11 -30 0z"/>
<path d="M2813 4748 c2 -7 10 -12 17 -10 11 3 11 0 0 -12 -7 -9 -19 -16 -26
-16 -8 0 -14 -3 -14 -7 1 -14 40 -56 47 -50 3 4 0 13 -7 22 -20 24 -3 31 28
13 16 -10 29 -29 33 -48 8 -39 16 -47 31 -32 9 9 9 15 0 24 -7 7 -12 20 -12
29 0 21 -68 99 -87 99 -8 0 -13 -6 -10 -12z"/>
<path d="M665 4733 c-21 -5 -63 -22 -127 -53 -58 -27 -137 -84 -138 -97 0 -7
-9 -17 -21 -24 -16 -8 -18 -14 -10 -22 8 -8 21 -1 49 26 42 41 189 137 209
137 7 0 13 5 13 10 0 6 9 10 19 10 11 0 23 5 26 10 3 6 5 9 3 9 -2 -1 -12 -3
-23 -6z"/>
<path d="M2620 4708 c0 -18 27 -44 37 -34 4 4 -3 16 -15 29 -18 17 -22 18 -22
5z"/>
<path d="M2692 4668 c-17 -17 -15 -27 11 -62 49 -66 90 -163 114 -265 23 -96
25 -127 26 -328 0 -216 1 -222 21 -227 12 -3 27 1 36 11 13 14 13 15 -1 10
-18 -6 -18 -4 -4 101 7 43 5 52 -8 52 -23 0 -28 77 -6 104 27 34 32 80 15 138
-8 29 -21 85 -30 125 -16 73 -75 215 -95 227 -6 4 -11 23 -11 42 0 19 -4 34
-10 34 -5 0 -10 7 -10 15 0 8 -6 15 -14 15 -8 0 -16 5 -18 10 -2 7 -8 6 -16
-2z"/>
<path d="M2857 4610 c7 -28 63 -143 68 -138 9 9 -22 99 -35 103 -9 3 -21 17
-28 33 -10 24 -11 25 -5 2z"/>
<path d="M1660 4587 c-14 -7 -43 -18 -66 -25 -22 -6 -49 -21 -59 -32 -10 -11
-23 -20 -29 -20 -6 0 -27 -15 -47 -33 -20 -17 -48 -42 -63 -54 -14 -13 -26
-30 -26 -38 0 -8 -5 -15 -10 -15 -6 0 -15 -11 -20 -25 -5 -14 -14 -25 -19 -25
-5 0 -13 -10 -16 -22 -4 -13 -15 -41 -24 -63 -27 -58 -35 -126 -32 -250 2 -88
8 -123 27 -175 14 -36 29 -72 34 -80 6 -8 19 -32 31 -53 38 -72 152 -174 247
-222 110 -57 188 -64 382 -37 91 13 235 67 261 98 8 10 32 30 53 46 21 15 35
28 31 28 -4 0 5 13 21 29 47 45 65 71 59 81 -10 17 6 34 17 19 8 -11 9 -11 5
1 -2 8 3 23 11 33 12 13 13 20 4 29 -9 9 -12 8 -12 -7 0 -10 -3 -16 -6 -12 -4
3 1 28 10 54 50 152 54 181 38 238 -13 45 -15 84 -2 45 7 -22 8 -21 7 11 -1
28 -4 35 -16 31 -9 -3 -12 -1 -7 6 4 6 4 28 0 48 -4 24 -9 32 -15 23 -13 -21
-23 -2 -24 46 0 32 -3 41 -12 34 -8 -8 -10 -4 -6 12 4 13 2 20 -4 16 -5 -3
-17 3 -26 14 -14 16 -15 24 -6 41 12 22 12 22 -15 5 -14 -10 -26 -13 -26 -7 0
5 4 10 9 10 5 0 12 8 15 17 4 10 4 14 0 11 -3 -4 -16 2 -27 13 -15 14 -23 16
-28 7 -7 -12 -23 -5 -24 10 -1 4 -8 21 -17 37 -15 29 -74 64 -158 95 -50 18
-387 24 -420 7z m555 -97 c13 -6 15 -9 5 -9 -8 0 -22 4 -30 9 -18 12 -2 12 25
0z m-645 -114 c0 -2 -8 -10 -17 -17 -16 -13 -17 -12 -4 4 13 16 21 21 21 13z
m871 -314 c1 -28 0 -55 -4 -59 -4 -3 -7 5 -7 19 0 14 -3 47 -6 74 -4 35 -2 45
5 33 5 -8 11 -38 12 -67z m-1004 -104 c-3 -8 -6 -5 -6 6 -1 11 2 17 5 13 3 -3
4 -12 1 -19z m40 -150 c-3 -8 -6 -5 -6 6 -1 11 2 17 5 13 3 -3 4 -12 1 -19z
m901 -88 c-7 -10 -14 -17 -17 -15 -4 4 18 35 25 35 2 0 -1 -9 -8 -20z m-823
-27 l28 -38 -31 29 c-18 17 -32 33 -32 38 0 15 7 9 35 -29z m779 -35 c-10 -13
-29 -32 -43 -43 l-26 -18 26 29 c14 16 32 36 40 45 21 25 24 14 3 -13z m-129
-108 c-3 -5 -11 -10 -16 -10 -6 0 -7 5 -4 10 3 6 11 10 16 10 6 0 7 -4 4 -10z
m-384 -38 c-17 -6 -61 7 -61 17 0 5 16 4 36 -2 20 -6 31 -13 25 -15z m306 2
c-3 -3 -12 -4 -19 -1 -8 3 -5 6 6 6 11 1 17 -2 13 -5z"/>
<path d="M2198 4573 c7 -3 16 -2 19 1 4 3 -2 6 -13 5 -11 0 -14 -3 -6 -6z"/>
<path d="M2935 4537 c-4 -10 -5 -21 -1 -24 10 -10 18 4 13 24 -4 17 -4 17 -12
0z"/>
<path d="M330 4505 c-7 -9 -10 -18 -7 -22 8 -7 37 15 37 28 0 14 -16 11 -30
-6z"/>
<path d="M2982 4460 c0 -14 2 -19 5 -12 2 6 2 18 0 25 -3 6 -5 1 -5 -13z"/>
<path d="M276 4425 c-3 -8 -1 -15 4 -15 6 0 10 7 10 15 0 8 -2 15 -4 15 -2 0
-6 -7 -10 -15z"/>
<path d="M255 4380 c-3 -5 -1 -10 4 -10 6 0 11 5 11 10 0 6 -2 10 -4 10 -3 0
-8 -4 -11 -10z"/>
<path d="M2436 4257 c3 -10 9 -15 12 -12 3 3 0 11 -7 18 -10 9 -11 8 -5 -6z"/>
<path d="M795 4165 c-22 -8 -41 -15 -42 -15 -6 0 -21 -62 -18 -77 2 -10 4 -24
4 -31 1 -8 14 -27 30 -43 53 -52 141 -31 162 40 14 48 -1 85 -50 118 -39 27
-35 26 -86 8z"/>
<path d="M171 4074 c0 -11 3 -14 6 -6 3 7 2 16 -1 19 -3 4 -6 -2 -5 -13z"/>
<path d="M2567 4049 c4 -13 8 -18 11 -10 2 7 -1 18 -6 23 -8 8 -9 4 -5 -13z"/>
<path d="M3137 4029 c-24 -43 -17 -45 11 -3 12 19 19 34 15 34 -5 0 -16 -14
-26 -31z"/>
<path d="M3064 4037 c3 -11 -1 -33 -9 -51 -11 -23 -13 -40 -7 -56 l9 -24 12
22 c10 18 9 21 -4 16 -22 -9 -19 12 7 47 21 28 21 30 4 47 -18 16 -19 16 -12
-1z"/>
<path d="M93 3965 c0 -33 2 -45 4 -27 2 18 2 45 0 60 -2 15 -4 0 -4 -33z"/>
<path d="M2807 3935 c-10 -76 -7 -147 6 -142 13 4 16 83 7 152 l-6 40 -7 -50z"/>
<path d="M2532 3950 c0 -14 2 -19 5 -12 2 6 2 18 0 25 -3 6 -5 1 -5 -13z"/>
<path d="M2453 3843 c-4 -10 -11 -22 -17 -26 -7 -6 -6 -7 3 -5 13 4 37 48 25
48 -2 0 -8 -8 -11 -17z"/>
<path d="M132 3810 c0 -19 2 -27 5 -17 2 9 2 25 0 35 -3 9 -5 1 -5 -18z"/>
<path d="M3021 3824 c0 -11 3 -14 6 -6 3 7 2 16 -1 19 -3 4 -6 -2 -5 -13z"/>
<path d="M2501 3814 c0 -11 3 -14 6 -6 3 7 2 16 -1 19 -3 4 -6 -2 -5 -13z"/>
<path d="M92 3760 c0 -19 2 -27 5 -17 2 9 2 25 0 35 -3 9 -5 1 -5 -18z"/>
<path d="M2462 3735 c-17 -37 -14 -45 4 -12 9 16 14 31 11 33 -2 2 -9 -7 -15
-21z"/>
<path d="M131 3724 c0 -11 3 -14 6 -6 3 7 2 16 -1 19 -3 4 -6 -2 -5 -13z"/>
<path d="M104 3595 c0 -49 1 -71 3 -48 2 23 2 64 0 90 -2 26 -3 8 -3 -42z"/>
<path d="M141 3664 c0 -11 3 -14 6 -6 3 7 2 16 -1 19 -3 4 -6 -2 -5 -13z"/>
<path d="M2576 3672 c-3 -6 -1 -14 5 -17 14 -9 20 -2 10 14 -6 8 -11 9 -15 3z"/>
<path d="M2846 3623 c-5 -36 -9 -173 -21 -788 -3 -143 -8 -354 -10 -470 -3
-115 -7 -430 -10 -700 -3 -269 -10 -719 -15 -1000 -13 -679 -13 -665 4 -665
21 0 24 30 20 240 -2 143 0 197 9 202 9 6 8 11 -3 18 -12 8 -13 12 -1 19 10 6
11 13 2 29 -14 26 -15 112 -1 112 6 0 9 32 9 78 -1 60 -3 69 -9 42 l-7 -35 -2
38 c0 20 3 37 8 37 6 0 9 69 9 162 -1 90 2 336 6 548 4 212 8 505 9 652 1 146
5 270 10 274 11 11 8 94 -3 94 -7 0 -7 6 0 20 7 14 8 20 0 20 -7 0 -9 58 -5
183 9 338 16 927 12 927 -3 0 -8 -17 -11 -37z"/>
<path d="M141 3564 c0 -11 3 -14 6 -6 3 7 2 16 -1 19 -3 4 -6 -2 -5 -13z"/>
<path d="M2812 3550 c0 -19 2 -27 5 -17 2 9 2 25 0 35 -3 9 -5 1 -5 -18z"/>
<path d="M782 3556 c-92 -25 -158 -125 -149 -226 4 -51 42 -150 58 -150 3 0
18 -11 32 -24 37 -34 120 -60 169 -52 52 8 104 36 151 79 31 29 37 41 37 75 0
23 4 44 10 47 5 3 9 27 8 53 -2 53 -7 70 -18 53 -4 -7 -12 4 -19 26 -8 25 -28
49 -54 68 -89 65 -135 75 -225 51z m-1 -59 c9 -7 14 -16 12 -22 -4 -14 58 -17
74 -4 7 6 10 16 6 22 -4 6 2 8 18 4 13 -4 29 -7 36 -7 15 0 43 -28 43 -43 0
-7 -20 -21 -45 -32 -33 -14 -45 -25 -45 -41 0 -17 5 -20 24 -17 13 3 27 0 30
-6 4 -6 2 -11 -5 -11 -6 0 -17 -8 -24 -17 -12 -16 -14 -16 -37 -1 -14 9 -38
16 -54 16 -43 -1 -72 11 -79 33 -5 15 -9 17 -20 7 -30 -27 -44 -38 -50 -38 -9
0 -5 91 5 111 12 21 36 25 42 7 3 -7 11 2 19 20 15 34 25 38 50 19z m193 -153
c3 -8 2 -12 -4 -9 -6 3 -10 10 -10 16 0 14 7 11 14 -7z m-65 -63 c41 -8 60
-23 61 -46 0 -16 -56 -36 -83 -30 -54 14 -85 -16 -51 -49 27 -28 -31 -20 -76
10 -21 14 -43 23 -48 20 -12 -7 -39 32 -48 69 -6 25 -5 27 22 23 16 -1 32 -7
36 -13 4 -6 12 -3 20 7 22 28 63 30 167 9z"/>
<path d="M850 3369 c0 -5 5 -7 10 -4 6 3 10 8 10 11 0 2 -4 4 -10 4 -5 0 -10
-5 -10 -11z"/>
<path d="M835 3271 c-6 -11 9 -23 19 -14 9 9 7 23 -3 23 -6 0 -12 -4 -16 -9z"/>
<path d="M2991 3455 c-1 -60 -4 -175 -6 -255 -11 -326 -13 -494 -5 -470 4 14
10 187 14 385 4 198 9 362 11 365 1 3 -1 23 -5 45 -6 30 -8 13 -9 -70z"/>
<path d="M101 3434 c0 -11 3 -14 6 -6 3 7 2 16 -1 19 -3 4 -6 -2 -5 -13z"/>
<path d="M112 3285 c0 -16 2 -22 5 -12 2 9 2 23 0 30 -3 6 -5 -1 -5 -18z"/>
<path d="M1091 3264 c0 -11 3 -14 6 -6 3 7 2 16 -1 19 -3 4 -6 -2 -5 -13z"/>
<path d="M150 3254 c0 -8 5 -12 10 -9 6 4 8 11 5 16 -9 14 -15 11 -15 -7z"/>
<path d="M91 3244 c0 -11 3 -14 6 -6 3 7 2 16 -1 19 -3 4 -6 -2 -5 -13z"/>
<path d="M112 3205 c0 -16 2 -22 5 -12 2 9 2 23 0 30 -3 6 -5 -1 -5 -18z"/>
<path d="M1777 3218 c-6 -4 -39 -10 -74 -14 -42 -4 -67 -12 -79 -25 -9 -10
-26 -19 -37 -19 -30 0 -86 -38 -147 -100 -115 -115 -165 -221 -176 -374 -5
-65 -3 -95 5 -100 6 -4 11 -23 11 -42 0 -19 4 -42 9 -52 5 -9 15 -37 21 -62 7
-24 25 -60 41 -79 16 -20 29 -41 29 -47 0 -14 113 -114 129 -114 6 0 11 -4 11
-8 0 -16 106 -62 175 -76 46 -10 122 -14 220 -12 144 2 153 3 230 35 97 39
154 79 134 93 -10 6 -6 7 10 3 20 -6 23 -5 17 11 -4 10 -4 15 -1 12 16 -15
104 111 141 202 22 51 28 85 31 158 2 56 -1 92 -7 92 -6 0 -10 5 -10 11 0 5 5
7 11 3 13 -8 2 54 -13 73 -5 7 -7 16 -4 22 4 5 -1 16 -10 25 -8 9 -12 20 -9
26 3 5 4 10 0 10 -3 0 -10 -10 -15 -22 -9 -21 -10 -21 -9 -3 2 39 -1 56 -10
50 -13 -8 -22 10 -15 29 6 15 8 15 21 -1 13 -16 13 -16 3 5 -6 12 -15 20 -19
17 -5 -2 -14 2 -21 11 -7 8 -20 12 -27 10 -11 -4 -13 0 -8 14 4 14 2 18 -7 15
-8 -3 -14 4 -14 20 -2 31 -34 71 -44 55 -5 -7 -11 -6 -19 3 -6 8 -20 13 -30
10 -10 -3 -22 0 -25 6 -4 6 -1 9 7 5 8 -3 14 1 14 9 0 11 -10 14 -34 12 -19
-2 -31 1 -28 6 4 5 2 9 -3 9 -5 0 -12 8 -14 18 -6 21 -132 52 -211 52 -31 0
-46 4 -42 11 4 5 19 8 33 5 15 -3 34 -2 42 4 18 11 -164 10 -183 -2z m518
-168 c3 -5 1 -10 -4 -10 -6 0 -11 5 -11 10 0 6 2 10 4 10 3 0 8 -4 11 -10z
m109 -255 c10 -30 16 -60 14 -66 -2 -7 -13 20 -25 59 -24 83 -14 89 11 7z m53
-57 c-3 -8 -6 -5 -6 6 -1 11 2 17 5 13 3 -3 4 -12 1 -19z m13 -62 c0 -3 -4 -8
-10 -11 -5 -3 -10 -1 -10 4 0 6 5 11 10 11 6 0 10 -2 10 -4z m-23 -178 c-3 -8
-6 -5 -6 6 -1 11 2 17 5 13 3 -3 4 -12 1 -19z"/>
<path d="M2160 3146 c0 -2 7 -9 15 -16 9 -7 15 -8 15 -2 0 5 -7 12 -15 16 -8
3 -15 4 -15 2z"/>
<path d="M6285 3061 c-3 -5 -1 -12 5 -16 5 -3 10 1 10 9 0 18 -6 21 -15 7z"/>
<path d="M121 3024 c0 -11 3 -14 6 -6 3 7 2 16 -1 19 -3 4 -6 -2 -5 -13z"/>
<path d="M2320 3030 c0 -5 5 -10 11 -10 5 0 7 5 4 10 -3 6 -8 10 -11 10 -2 0
-4 -4 -4 -10z"/>
<path d="M2581 2984 c0 -11 3 -14 6 -6 3 7 2 16 -1 19 -3 4 -6 -2 -5 -13z"/>
<path d="M122 2960 c0 -14 2 -19 5 -12 2 6 2 18 0 25 -3 6 -5 1 -5 -13z"/>
<path d="M122 2910 c0 -14 2 -19 5 -12 2 6 2 18 0 25 -3 6 -5 1 -5 -13z"/>
<path d="M3052 2890 c0 -19 2 -27 5 -17 2 9 2 25 0 35 -3 9 -5 1 -5 -18z"/>
<path d="M196 2864 c-4 -14 -5 -28 -3 -31 3 -2 8 8 11 23 4 14 5 28 3 31 -3 2
-8 -8 -11 -23z"/>
<path d="M120 2871 c0 -6 5 -13 10 -16 6 -3 10 1 10 9 0 9 -4 16 -10 16 -5 0
-10 -4 -10 -9z"/>
<path d="M6225 2850 c3 -5 8 -10 11 -10 2 0 4 5 4 10 0 6 -5 10 -11 10 -5 0
-7 -4 -4 -10z"/>
<path d="M3052 2810 c0 -19 2 -27 5 -17 2 9 2 25 0 35 -3 9 -5 1 -5 -18z"/>
<path d="M128 2692 c2 -53 8 -101 13 -107 11 -11 1 185 -10 197 -3 4 -5 -37
-3 -90z"/>
<path d="M211 2724 c0 -11 3 -14 6 -6 3 7 2 16 -1 19 -3 4 -6 -2 -5 -13z"/>
<path d="M211 2684 c0 -11 3 -14 6 -6 3 7 2 16 -1 19 -3 4 -6 -2 -5 -13z"/>
<path d="M2972 2600 c-1 -58 2 -98 6 -90 4 8 5 56 2 105 l-7 90 -1 -105z"/>
<path d="M218 2623 c7 -3 16 -2 19 1 4 3 -2 6 -13 5 -11 0 -14 -3 -6 -6z"/>
<path d="M2851 2604 c0 -11 3 -14 6 -6 3 7 2 16 -1 19 -3 4 -6 -2 -5 -13z"/>
<path d="M210 2585 c0 -8 5 -15 10 -15 6 0 10 7 10 15 0 8 -4 15 -10 15 -5 0
-10 -7 -10 -15z"/>
<path d="M2572 2560 c0 -14 2 -19 5 -12 2 6 2 18 0 25 -3 6 -5 1 -5 -13z"/>
<path d="M151 2554 c0 -11 3 -14 6 -6 3 7 2 16 -1 19 -3 4 -6 -2 -5 -13z"/>
<path d="M157 2513 c-3 -5 1 -19 9 -33 l14 -25 -6 30 c-8 35 -10 39 -17 28z"/>
<path d="M221 2504 c0 -11 3 -14 6 -6 3 7 2 16 -1 19 -3 4 -6 -2 -5 -13z"/>
<path d="M2561 2484 c0 -11 3 -14 6 -6 3 7 2 16 -1 19 -3 4 -6 -2 -5 -13z"/>
<path d="M2993 2455 c0 -22 2 -30 4 -17 2 12 2 30 0 40 -3 9 -5 -1 -4 -23z"/>
<path d="M211 2464 c0 -11 3 -14 6 -6 3 7 2 16 -1 19 -3 4 -6 -2 -5 -13z"/>
<path d="M220 2426 c0 -8 4 -17 9 -20 5 -4 7 3 4 14 -6 23 -13 26 -13 6z"/>
<path d="M2536 2425 c-9 -26 -7 -32 5 -12 6 10 9 21 6 23 -2 3 -7 -2 -11 -11z"/>
<path d="M2966 2358 c-4 -46 -7 -119 -6 -163 1 -44 0 -87 -1 -95 -1 -8 -1 -66
-1 -129 2 -119 13 -144 18 -44 2 32 8 117 14 188 7 93 7 157 -1 225 -6 52 -12
96 -14 98 -1 2 -6 -34 -9 -80z"/>
<path d="M170 2421 c0 -5 5 -13 10 -16 6 -3 10 -14 10 -24 0 -10 7 -24 15 -31
18 -15 18 -15 1 35 -13 36 -36 60 -36 36z"/>
<path d="M121 2370 c0 -8 4 -24 9 -35 l9 -20 0 20 c0 11 -4 27 -9 35 -9 13
-10 13 -9 0z"/>
<path d="M265 2370 c3 -5 8 -10 11 -10 2 0 4 5 4 10 0 6 -5 10 -11 10 -5 0 -7
-4 -4 -10z"/>
<path d="M306 2335 c3 -22 10 -42 15 -43 5 -2 17 -17 25 -34 13 -25 14 -32 2
-39 -13 -8 -10 -10 22 -13 9 0 14 -10 13 -23 -3 -27 13 -31 20 -5 3 12 5 13 6
2 3 -27 133 -119 246 -174 98 -48 120 -55 205 -64 197 -20 955 -20 1110 -1 90
12 201 44 288 85 29 13 56 24 60 24 13 0 62 55 62 68 0 17 -7 15 -43 -12 -18
-13 -45 -26 -60 -30 -15 -4 -25 -11 -22 -16 3 -5 -16 -15 -42 -22 -27 -8 -49
-10 -51 -6 -7 15 -24 8 -18 -7 4 -11 -1 -15 -18 -15 -12 0 -26 -3 -29 -7 -9
-8 -11 -8 -207 -21 -85 -6 -333 -14 -550 -18 -496 -8 -566 2 -744 108 -72 43
-236 196 -236 220 0 8 -9 20 -21 28 -12 8 -25 24 -30 35 -7 14 -8 8 -3 -20z"/>
<path d="M261 2314 c0 -11 3 -14 6 -6 3 7 2 16 -1 19 -3 4 -6 -2 -5 -13z"/>
<path d="M287 2307 c-4 -10 1 -32 12 -53 14 -25 20 -30 25 -19 3 8 1 15 -3 15
-5 0 -13 17 -18 38 -7 28 -10 33 -16 19z"/>
<path d="M216 2295 c4 -8 10 -12 15 -9 14 8 10 24 -6 24 -9 0 -12 -6 -9 -15z"/>
<path d="M240 2274 c0 -5 7 -20 16 -32 8 -12 13 -22 9 -22 -3 0 2 -14 10 -31
23 -43 118 -133 129 -122 9 9 7 23 -3 21 -11 -4 -56 44 -65 68 -6 15 -9 16
-15 5 -7 -11 -11 -9 -21 8 -6 13 -9 28 -7 35 3 7 -8 27 -24 46 -16 18 -29 29
-29 24z"/>
<path d="M225 2170 c3 -5 8 -10 11 -10 2 0 4 5 4 10 0 6 -5 10 -11 10 -5 0 -7
-4 -4 -10z"/>
<path d="M2135 2062 c-11 -2 -24 -8 -30 -14 -9 -9 43 -1 54 8 8 7 -4 10 -24 6z"/>
<path d="M430 2030 c0 -5 7 -10 15 -10 8 0 15 5 15 10 0 6 -7 10 -15 10 -8 0
-15 -4 -15 -10z"/>
<path d="M470 1999 c0 -5 5 -7 10 -4 6 3 10 8 10 11 0 2 -4 4 -10 4 -5 0 -10
-5 -10 -11z"/>
<path d="M5925 1770 c3 -5 8 -10 11 -10 2 0 4 5 4 10 0 6 -5 10 -11 10 -5 0
-7 -4 -4 -10z"/>
<path d="M5905 1210 c-18 -7 -19 -8 -2 -15 20 -8 47 0 47 15 0 12 -17 12 -45
0z"/>
<path d="M0 756 c0 -16 30 -26 78 -26 46 0 40 16 -12 29 -58 14 -66 14 -66 -3z"/>
<path d="M272 703 c-12 -2 -20 -9 -17 -14 4 -5 17 -6 31 -3 20 5 26 2 31 -14
6 -24 59 -40 76 -23 14 14 -9 40 -32 34 -9 -2 -23 3 -30 11 -14 16 -18 17 -59
9z"/>
<path d="M463 610 c6 -71 -10 -96 -37 -56 -9 14 -16 30 -16 36 0 20 -21 9 -39
-21 -12 -19 -20 -26 -23 -17 -4 11 -8 11 -21 -1 -15 -12 -17 -11 -17 7 0 31
-19 37 -45 12 -18 -17 -32 -21 -71 -18 -46 3 -49 2 -46 -21 3 -16 -1 -22 -10
-19 -7 3 -14 14 -16 26 -5 35 -34 48 -99 44 -22 -2 -23 -6 -23 -76 l0 -75 58
-6 c157 -18 319 -54 437 -98 l40 -15 -46 -7 c-45 -7 -64 -4 -304 45 -49 11
-111 19 -137 19 l-48 1 1 -122 c1 -68 4 -110 6 -95 3 16 10 26 16 24 8 -3 12
-32 11 -91 l-1 -87 71 3 70 3 12 41 c14 48 31 83 51 102 11 11 13 10 13 -8 0
-11 -6 -35 -13 -53 -8 -18 -17 -44 -21 -60 -6 -26 -5 -27 37 -27 41 0 46 3 97
65 30 36 58 65 63 65 7 0 46 -18 55 -25 2 -2 -4 -20 -12 -40 -29 -69 -42 -65
234 -65 138 0 250 3 250 8 -1 7 -92 78 -147 114 l-26 17 36 6 c28 6 42 2 69
-17 18 -12 34 -26 36 -30 2 -5 10 -8 17 -8 7 0 35 -20 62 -45 l50 -44 166 0
c92 -1 167 3 167 8 0 5 -7 14 -15 21 -22 19 -65 96 -65 119 0 12 -6 21 -15 21
-20 0 -16 -29 8 -55 22 -25 3 -34 -23 -10 -22 20 -32 65 -18 82 18 22 -1 52
-35 55 -27 2 -33 8 -37 33 -3 17 -9 29 -13 28 -15 -6 -27 -3 -27 7 0 12 39 7
48 -6 9 -12 49 -34 62 -34 21 0 8 19 -32 50 -25 18 -51 29 -61 26 -10 -2 -21
2 -24 10 -3 8 -9 14 -14 14 -4 0 -6 -6 -3 -14 4 -11 0 -13 -18 -9 -30 8 -98
53 -98 65 0 6 -11 7 -25 4 -27 -7 -62 7 -83 33 -10 14 -11 13 -5 -4 6 -19 6
-19 -14 -2 -11 9 -26 17 -34 17 -8 0 -22 7 -33 15 -17 13 -16 14 17 8 32 -5
37 -2 51 26 l17 31 -38 -4 c-21 -2 -46 -7 -56 -11 -9 -4 -29 -4 -45 1 -25 7
-25 8 -5 11 12 2 27 11 33 18 13 15 13 15 -35 30 -8 2 -15 1 -15 -3 0 -7 -104
-42 -124 -42 -4 0 -15 7 -24 16 -14 15 -14 17 1 26 9 5 17 20 17 33 0 18 -7
25 -32 30 -18 4 -37 10 -43 14 -5 4 -21 8 -34 9 -23 1 -24 -1 -18 -58z m44
-66 c-3 -3 -12 -4 -19 -1 -8 3 -5 6 6 6 11 1 17 -2 13 -5z m-102 -14 c19 -8
19 -9 -2 -9 -12 -1 -25 4 -28 9 -7 12 2 12 30 0z m342 -34 c9 -9 -60 -7 -75 2
-7 5 5 7 28 6 23 -1 44 -4 47 -8z m359 -193 c-10 -10 -19 5 -10 18 6 11 8 11
12 0 2 -7 1 -15 -2 -18z m-444 -95 c-7 -7 -16 -7 -28 0 -14 8 -13 10 10 10 18
0 24 -4 18 -10z m98 -48 c0 -5 -4 -10 -10 -10 -5 0 -10 5 -10 10 0 6 5 10 10
10 6 0 10 -4 10 -10z m380 -64 c0 -26 -6 -18 -14 19 -5 22 -4 26 4 15 5 -8 10
-24 10 -34z"/>
<path d="M410 650 c0 -5 5 -10 10 -10 6 0 10 5 10 10 0 6 -4 10 -10 10 -5 0
-10 -4 -10 -10z"/>
<path d="M222 628 c-14 -14 -16 -28 -3 -28 9 0 24 30 18 36 -2 2 -9 -2 -15 -8z"/>
<path d="M343 613 c-24 -5 -30 -18 -13 -28 16 -10 50 5 50 21 0 8 -3 13 -7 13
-5 -1 -18 -4 -30 -6z"/>
<path d="M660 600 c0 -23 13 -26 29 -6 9 11 8 15 -5 20 -23 9 -24 8 -24 -14z"/>
<path d="M620 600 c0 -5 5 -10 10 -10 6 0 10 5 10 10 0 6 -4 10 -10 10 -5 0
-10 -4 -10 -10z"/>
<path d="M2821 594 c0 -11 3 -14 6 -6 3 7 2 16 -1 19 -3 4 -6 -2 -5 -13z"/>
<path d="M890 508 c1 -16 28 -53 35 -47 6 7 -18 59 -27 59 -5 0 -8 -6 -8 -12z"/>
<path d="M950 470 c0 -5 5 -10 10 -10 6 0 10 5 10 10 0 6 -4 10 -10 10 -5 0
-10 -4 -10 -10z"/>
<path d="M1020 420 c0 -5 5 -10 11 -10 5 0 7 5 4 10 -3 6 -8 10 -11 10 -2 0
-4 -4 -4 -10z"/>
<path d="M2994 282 c-13 -21 -6 -82 10 -88 7 -3 10 -22 8 -49 -3 -28 0 -45 7
-45 6 0 12 10 12 23 1 20 2 20 6 2 7 -28 33 -44 70 -45 27 0 34 5 39 26 4 17
1 31 -10 42 -10 10 -16 12 -16 4 0 -7 -4 -12 -8 -12 -11 0 -36 79 -33 103 2
17 -19 24 -33 10 -3 -4 -15 -7 -26 -8 -23 -2 -27 24 -8 43 7 7 8 12 2 12 -5 0
-14 -8 -20 -18z"/>
<path d="M3120 286 c0 -9 5 -16 10 -16 6 0 10 4 10 9 0 6 -4 13 -10 16 -5 3
-10 -1 -10 -9z"/>
<path d="M1274 233 c10 -52 26 -73 56 -73 16 0 30 2 30 5 0 6 -78 85 -85 85
-2 0 -3 -8 -1 -17z"/>
<path d="M2890 235 c0 -8 5 -15 10 -15 14 0 13 -63 -2 -78 -9 -9 -9 -17 1 -35
7 -13 12 -30 11 -38 -7 -43 1 -69 19 -69 15 0 21 8 23 33 5 56 -4 213 -11 193
-7 -19 -8 -19 -29 2 -17 17 -22 18 -22 7z"/>
<path d="M2987 174 c-4 -4 -7 -26 -6 -48 l1 -41 9 39 c10 42 8 62 -4 50z"/>
<path d="M1380 120 c0 -5 5 -10 11 -10 5 0 7 5 4 10 -3 6 -8 10 -11 10 -2 0
-4 -4 -4 -10z"/>
<path d="M1379 96 c-1 -1 -3 -11 -4 -23 -1 -14 3 -23 12 -23 8 0 13 -6 12 -13
-4 -31 2 -37 41 -37 33 0 40 3 40 20 0 15 -6 19 -27 17 -23 -2 -29 3 -31 22
-2 13 1 27 8 31 6 4 -3 7 -20 7 -16 0 -31 -1 -31 -1z"/>
<path d="M1436 63 c-6 -14 -5 -15 5 -6 7 7 10 15 7 18 -3 3 -9 -2 -12 -12z"/>
<path d="M367 32 c-22 -24 -21 -32 2 -32 10 0 22 7 25 16 14 37 0 46 -27 16z"/>
</g>
</svg>
